<svg width="24" height="24" viewBox="0 0 24 24" fill="none" xmlns="http://www.w3.org/2000/svg">
<path d="M7.95886 15.9792H0.397943C0.178165 15.9792 0 16.1574 0 16.3772V23.5402C0 23.7599 0.178165 23.9381 0.397943 23.9381H7.56092C7.78069 23.9381 7.95886 23.7599 7.95886 23.5402V15.9792Z" fill="#FF6B4A"/>
<path fill-rule="evenodd" clip-rule="evenodd" d="M7.95886 0.459466V8.02038H0.397943C0.178165 8.02038 0 7.84222 0 7.62244V0.459466C0 0.239689 0.178165 0.0615234 0.397943 0.0615234H7.56092C7.78069 0.0615234 7.95886 0.239689 7.95886 0.459466Z" fill="#9747FF"/>
<path d="M7.95886 8.02038V15.9792H12.1109C12.2507 15.9792 12.3802 16.0526 12.4522 16.1724L16.9956 23.7449C17.0675 23.8648 17.1971 23.9381 17.3369 23.9381H23.6015C23.9042 23.9381 24.096 23.6136 23.9502 23.3484L17.8139 12.1916C17.7483 12.0722 17.7483 11.9275 17.8139 11.808L23.9502 0.651242C24.096 0.386032 23.9042 0.0615234 23.6015 0.0615234H17.1428C17.0004 0.0615234 16.8688 0.137637 16.7978 0.261103L12.451 7.8208C12.38 7.94427 12.2484 8.02038 12.106 8.02038H7.95886Z" fill="url(#paint0_linear_541_1648)"/>
<defs>
<linearGradient id="paint0_linear_541_1648" x1="12" y1="0.0615234" x2="12" y2="23.9381" gradientUnits="userSpaceOnUse">
<stop stop-color="#9747FF"/>
<stop offset="1" stop-color="#FF6B4A"/>
</linearGradient>
</defs>
</svg>
